<svg width="100" height="100" viewBox="0 0 100 100" fill="none" xmlns="http://www.w3.org/2000/svg">
<path d="M1.16054 6.76528C-0.386521 5.21823 -0.386521 2.70926 1.16054 1.1614C2.70759 -0.386467 5.21658 -0.386467 6.76445 1.1614L49.9998 44.3966L93.2352 1.1614C94.7823 -0.386467 97.2913 -0.386467 98.84 1.1614C100.387 2.70845 100.387 5.21823 98.84 6.76528L55.6029 49.9997L98.8391 93.2357C100.386 94.7828 100.386 97.2917 98.8391 98.8396C97.2913 100.387 94.7823 100.387 93.2344 98.8396L49.999 55.6044L6.76445 98.8396C5.21739 100.387 2.70841 100.387 1.16054 98.8396C-0.386521 97.2925 -0.386521 94.7836 1.16054 93.2357L44.3959 49.9997L1.16054 6.76528Z" fill="#323232"/>
</svg>
