<svg width="25" height="25" viewBox="0 0 25 25" fill="none" xmlns="http://www.w3.org/2000/svg">
<g clip-path="url(#clip0_33_24)">
<path d="M12.832 0.00778453H12.8462C16.251 0.124703 19.3066 1.50002 21.4946 3.62893C23.7358 5.80937 25.0801 8.78164 24.9961 12.0271V12.0432C24.9429 13.9837 24.3843 15.7945 23.4399 17.371C22.4722 18.9862 21.1016 20.3538 19.4604 21.3595C17.6431 22.4727 15.6709 23.1654 13.6802 23.3543C11.8638 23.5272 10.0293 23.2823 8.27782 22.5575L1.12743 25L3.17723 19.1325C2.29735 18.2448 1.61083 17.2779 1.10497 16.2672C0.193346 14.4441 -0.134779 12.4815 0.0493034 10.5681C0.230944 8.66915 0.918444 6.82395 2.03856 5.21924C2.89989 3.98467 4.01659 2.89361 5.35302 2.03307C6.43309 1.33711 7.63573 0.798506 8.91796 0.452185C10.147 0.120824 11.4639 -0.038207 12.832 0.00778453ZM8.05907 15.4787C9.62206 14.9866 10.6396 13.9576 10.8926 12.1667C10.9614 11.6797 10.8652 12.0476 10.5742 12.2947C9.62352 13.1015 7.75487 12.8162 7.49559 10.9726C6.97362 7.70832 10.5698 7.14368 11.6343 8.94621C11.8818 9.36512 12.0459 9.85385 12.105 10.3913C12.3613 12.7275 11.3061 14.8076 9.45311 15.7851C9.11034 15.9663 8.7495 16.107 8.36034 16.2112C8.16552 16.2561 8.02391 16.1359 7.95897 15.9319C7.9038 15.7591 7.88475 15.5673 8.05907 15.4787V15.4787ZM13.4731 15.4787C15.0366 14.9866 16.0537 13.9576 16.3066 12.1667C16.3755 11.6797 16.2793 12.0476 15.9883 12.2947C15.0376 13.1015 13.1689 12.8162 12.9097 10.9726C12.3882 7.70832 15.9839 7.14368 17.0483 8.94621C17.2959 9.36512 17.46 9.85385 17.519 10.3913C17.7754 12.7275 16.7207 14.8076 14.8672 15.7851C14.5244 15.9663 14.1631 16.107 13.7744 16.2112C13.5796 16.2561 13.4385 16.1359 13.373 15.9319C13.3174 15.7591 13.2988 15.5673 13.4731 15.4787ZM12.7969 2.0436H12.7832C11.5884 2.00371 10.4272 2.14501 9.333 2.44035C8.20849 2.74456 7.16552 3.20946 6.23973 3.80569C5.10399 4.53712 4.16356 5.45307 3.44579 6.48095C2.53759 7.78202 1.98143 9.26649 1.83641 10.7831C1.69188 12.2853 1.95067 13.8274 2.66698 15.2609C3.15917 16.245 3.86669 17.182 4.80565 18.0265L5.32958 18.4975L4.16503 21.8305L8.34862 20.4014L8.6372 20.53C10.2114 21.2337 11.8774 21.4759 13.5322 21.3179C15.2768 21.1523 17.0093 20.5433 18.6089 19.5625C20.0015 18.7097 21.1543 17.5666 21.9551 16.2289C22.7134 14.9639 23.1611 13.5188 23.2017 11.9794L23.2021 11.9634C23.2666 9.36845 22.1636 6.9658 20.3262 5.17823C18.4336 3.33635 15.7739 2.14667 12.7969 2.0436Z" fill="#E85A4F"/>
</g>
<defs>
<clipPath id="clip0_33_24">
<rect width="25" height="25" fill="white"/>
</clipPath>
</defs>
</svg>
