<svg id="visual" viewBox="0 0 900 600" width="900" height="600" xmlns="http://www.w3.org/2000/svg" xmlns:xlink="http://www.w3.org/1999/xlink" version="1.1"><path d="M0 510L37.5 510.8C75 511.7 150 513.3 225 498.2C300 483 375 451 450 429.8C525 408.7 600 398.3 675 407.8C750 417.3 825 446.7 862.5 461.3L900 476L900 601L862.5 601C825 601 750 601 675 601C600 601 525 601 450 601C375 601 300 601 225 601C150 601 75 601 37.5 601L0 601Z" fill="#e85a4f" stroke-linecap="round" stroke-linejoin="miter"></path></svg>